<?xml version="1.0" encoding="UTF-8"?>
<svg xmlns="http://www.w3.org/2000/svg" width="495" height="325" viewBox="0 0 495 325" fill="none">
  <g clip-path="url(#clip0)">
    <path d="M102.489 140.868C77.4573 140.984 57.0823 141.354 57.0823 141.354C57.0823 141.354 81.3011 109.257 102.398 121.149C123.496 133.04 147.731 140.936 147.731 140.936C147.731 140.936 127.521 140.753 102.489 140.868Z" fill="#F2F2F2"></path>
    <path d="M383.166 150.406C386.061 150.406 388.409 148.057 388.409 145.16C388.409 142.262 386.061 139.914 383.166 139.914C380.27 139.914 377.922 142.262 377.922 145.16C377.922 148.057 380.27 150.406 383.166 150.406Z" fill="#FF6584"></path>
    <path d="M383.986 182.131L344.779 227.176L345.989 228.23L385.196 183.185L383.986 182.131Z" fill="#3F3D56"></path>
    <path d="M384.592 191.105C389.254 191.105 393.034 187.323 393.034 182.658C393.034 177.993 389.254 174.211 384.592 174.211C379.929 174.211 376.149 177.993 376.149 182.658C376.149 187.323 379.929 191.105 384.592 191.105Z" fill="#3F3D56"></path>
    <path d="M360.427 210.42C360.427 210.42 376.553 190.056 355.927 176.085L360.427 210.42Z" fill="#3F3D56"></path>
    <path d="M97.2866 246.18C126.328 300.066 187.965 323.198 187.965 323.198C187.965 323.198 202.516 258.964 173.474 205.078C144.433 151.192 82.7959 128.06 82.7959 128.06C82.7959 128.06 68.2449 192.294 97.2866 246.18Z" fill="#3F3D56"></path>
    <path d="M117.248 228.452C169.68 260.012 189.874 322.701 189.874 322.701C189.874 322.701 125.058 334.219 72.6254 302.658C20.1933 271.098 0 208.409 0 208.409C0 208.409 64.816 196.891 117.248 228.452Z" fill="#6C63FF"></path>
    <path d="M325.866 228.898C273.157 259.993 252.41 322.5 252.41 322.5C252.41 322.5 317.122 334.592 369.831 303.496C422.54 272.401 443.286 209.894 443.286 209.894C443.286 209.894 378.575 197.802 325.866 228.898Z" fill="#3F3D56"></path>
    <path d="M344.335 248.177C314.818 301.804 252.979 324.389 252.979 324.389C252.979 324.389 238.997 260.029 268.514 206.402C298.031 152.775 359.87 130.189 359.87 130.189C359.87 130.189 373.852 194.55 344.335 248.177Z" fill="#6C63FF"></path>
    <path d="M237.218 100.577C234.171 97.8203 232.271 94.0187 231.894 89.9259C231.517 85.8332 232.691 81.7481 235.183 78.4806C234.853 78.79 234.531 79.1113 234.222 79.4528C232.779 81.0494 231.665 82.9147 230.942 84.9422C230.22 86.9698 229.904 89.1198 230.012 91.2695C230.23 95.6111 232.164 99.6881 235.387 102.604C238.609 105.519 242.858 107.034 247.197 106.816C249.346 106.707 251.452 106.177 253.396 105.254C255.34 104.332 257.083 103.035 258.526 101.438C258.834 101.097 259.122 100.744 259.396 100.384C256.397 103.193 252.452 104.772 248.345 104.807C244.237 104.843 240.265 103.333 237.218 100.577Z" fill="#2F2E41"></path>
    <path d="M222.379 112.21C241.013 112.21 256.119 97.0968 256.119 78.4532C256.119 59.8096 241.013 44.6959 222.379 44.6959C203.744 44.6959 188.638 59.8096 188.638 78.4532C188.638 97.0968 203.744 112.21 222.379 112.21Z" fill="#2F2E41"></path>
    <path d="M213.11 121.828L214.11 119.227L195.913 134.632L173.916 147.037C173.916 147.037 162.717 103.821 161.918 103.021C161.118 102.221 146.72 71.8099 140.321 86.215C133.922 100.62 152.719 109.023 152.719 109.023C152.719 109.023 153.319 161.642 172.516 161.242C191.713 160.842 215.51 143.435 215.91 141.835C216.31 140.234 213.11 121.828 213.11 121.828Z" fill="#FFB8B8"></path>
    <path d="M218.309 113.025C229.353 113.025 238.306 104.067 238.306 93.0174C238.306 81.9678 229.353 73.0103 218.309 73.0103C207.265 73.0103 198.312 81.9678 198.312 93.0174C198.312 104.067 207.265 113.025 218.309 113.025Z" fill="#FFB8B8"></path>
    <path d="M222.309 107.423C222.309 107.423 227.508 114.225 225.908 115.025C224.309 115.826 215.11 116.226 209.511 123.028C203.912 129.831 216.31 147.037 216.31 147.037L263.503 115.425L244.306 109.023C244.306 109.023 231.108 101.821 231.508 94.2179L222.309 107.423Z" fill="#FFB8B8"></path>
    <path d="M286.009 325H232.724C229.705 302.92 228.31 282.684 228.31 282.684C228.31 282.684 227.531 303.039 225.459 325H157C166.705 259.971 212.71 189.454 212.71 189.454C212.71 189.454 213.11 179.848 214.311 178.246C215.512 176.649 207.511 176.249 203.909 164.245C201.713 156.918 203.687 152.123 205.564 149.503C206.208 148.559 207.001 147.726 207.912 147.036C207.912 147.036 208.712 138.636 207.912 137.435C207.809 137.278 208.599 136.726 210.059 135.887C211.276 135.184 212.958 134.28 214.971 133.241C226.498 127.261 248.81 116.68 256.454 113.076C258.13 112.28 259.104 111.826 259.104 111.826L272.703 116.626C283.499 120.225 283.499 143.036 283.499 143.036L282.888 143.967L266.569 168.699L257.103 183.052C259.504 184.648 254.706 194.655 254.706 194.655C254.706 194.655 261.544 204.483 267.104 219.484C270.249 227.834 272.393 236.526 273.493 245.38C274.193 251.119 274.331 256.912 273.904 262.677C272.422 281.954 279.01 305.382 286.009 325Z" fill="#2F2E41"></path>
    <path d="M272.894 118.985C272.451 118.735 271.959 118.586 271.452 118.547C270.945 118.507 270.435 118.579 269.959 118.758C269.483 118.936 269.051 119.216 268.694 119.578C268.337 119.941 268.064 120.377 267.893 120.856C266.688 124.169 265.468 131.076 265.903 145.436C266.703 171.845 267.102 189.852 267.102 189.852V229.866C267.102 229.866 249.505 268.28 259.104 268.28C268.702 268.28 275.501 237.869 275.501 237.869C275.501 237.869 284.3 191.853 281.5 183.85C281.5 183.85 289.394 128.563 272.894 118.985Z" fill="#FFB8B8"></path>
    <path d="M215.962 86.9722C225.441 86.9722 233.125 81.7305 233.125 75.2645C233.125 68.7985 225.441 63.5568 215.962 63.5568C206.484 63.5568 198.8 68.7985 198.8 75.2645C198.8 81.7305 206.484 86.9722 215.962 86.9722Z" fill="#2F2E41"></path>
    <path d="M243.217 66.0811C252.265 66.0811 259.6 58.7426 259.6 49.6903C259.6 40.6379 252.265 33.2994 243.217 33.2994C234.169 33.2994 226.835 40.6379 226.835 49.6903C226.835 58.7426 234.169 66.0811 243.217 66.0811Z" fill="#2F2E41"></path>
    <path d="M254.919 61.398C250.811 61.3974 246.853 59.8525 243.83 57.0696C240.807 54.2867 238.94 50.4689 238.598 46.373C238.56 46.8239 238.537 47.2785 238.537 47.739C238.537 52.0861 240.263 56.2551 243.335 59.329C246.407 62.4029 250.574 64.1298 254.919 64.1298C259.264 64.1298 263.431 62.4029 266.503 59.329C269.576 56.2551 271.302 52.0861 271.302 47.739C271.302 47.2785 271.278 46.8239 271.241 46.373C270.899 50.4689 269.031 54.2867 266.008 57.0696C262.985 59.8525 259.027 61.3974 254.919 61.398Z" fill="#2F2E41"></path>
    <path d="M237.85 89.5287C238.602 89.349 238.879 87.8093 238.468 86.0898C238.058 84.3702 237.115 83.1219 236.363 83.3016C235.612 83.4813 235.335 85.0209 235.745 86.7405C236.156 88.4601 237.098 89.7084 237.85 89.5287Z" fill="#FFB8B8"></path>
    <path d="M237.707 89.2161C238.148 89.2161 238.507 88.8578 238.507 88.4158C238.507 87.9738 238.148 87.6155 237.707 87.6155C237.265 87.6155 236.907 87.9738 236.907 88.4158C236.907 88.8578 237.265 89.2161 237.707 89.2161Z" fill="#F2F2F2"></path>
    <path d="M47.5567 156.961C46.2729 156.961 45.0179 156.58 43.9505 155.866C42.883 155.153 42.0511 154.139 41.5598 152.952C41.0685 151.765 40.9399 150.459 41.1904 149.2C41.4409 147.94 42.0591 146.783 42.9669 145.875C43.8746 144.966 45.0312 144.348 46.2904 144.097C47.5495 143.847 48.8546 143.975 50.0407 144.467C51.2268 144.958 52.2405 145.791 52.9538 146.859C53.667 147.927 54.0477 149.182 54.0477 150.467C54.0458 152.188 53.3613 153.839 52.1444 155.057C50.9275 156.274 49.2776 156.959 47.5567 156.961ZM47.5567 145.055C46.4869 145.055 45.4411 145.372 44.5515 145.967C43.662 146.562 42.9687 147.407 42.5593 148.396C42.1499 149.385 42.0427 150.473 42.2515 151.522C42.4602 152.572 42.9753 153.537 43.7318 154.293C44.4883 155.05 45.4521 155.566 46.5014 155.775C47.5507 155.983 48.6383 155.876 49.6267 155.467C50.6151 155.057 51.4599 154.363 52.0543 153.473C52.6486 152.583 52.9659 151.537 52.9659 150.467C52.9642 149.032 52.3938 147.656 51.3797 146.642C50.3657 145.627 48.9908 145.056 47.5567 145.055Z" fill="#3F3D56"></path>
    <path d="M328.563 109.607H314.5V95.5361H328.563V109.607ZM315.581 108.525H327.482V96.6184H315.581V108.525Z" fill="#3F3D56"></path>
    <path d="M449.758 185.246C424.726 185.361 404.351 185.731 404.351 185.731C404.351 185.731 428.57 153.635 449.667 165.526C470.765 177.418 495 185.313 495 185.313C495 185.313 474.79 185.13 449.758 185.246Z" fill="#F2F2F2"></path>
    <path d="M372.948 77.0081C347.916 77.1236 327.541 77.4936 327.541 77.4936C327.541 77.4936 351.76 45.3972 372.857 57.2887C393.954 69.1802 418.19 77.0756 418.19 77.0756C418.19 77.0756 397.98 76.8927 372.948 77.0081Z" fill="#F2F2F2"></path>
    <path d="M135.677 90.8648L77.795 61.0864C75.8968 60.1099 74.4642 58.4189 73.8122 56.3856C73.1602 54.3523 73.3422 52.1431 74.3182 50.244L87.9544 23.7122C88.1524 23.3269 88.4268 22.986 88.7609 22.7103C89.0949 22.4346 89.4816 22.2299 89.8973 22.1086L135.519 8.79953C137.343 8.26741 139.302 8.45535 140.991 9.32465C142.681 10.1939 143.973 11.6784 144.602 13.4723L159.591 56.2518C159.966 57.3205 160.119 58.4543 160.041 59.584C159.963 60.7138 159.656 61.8158 159.138 62.8229L146.514 87.3863C146.03 88.3267 145.367 89.1625 144.561 89.8463C143.754 90.53 142.822 91.0481 141.815 91.3711C140.809 91.6941 139.749 91.8156 138.696 91.7288C137.642 91.6419 136.617 91.3483 135.677 90.8648Z" fill="#F2F2F2"></path>
    <path opacity="0.1" d="M137.976 80.3495L79.5328 55.3864C77.6496 54.4176 79.4154 55.9067 80.3837 54.0227L87.7304 24.1478L159.324 60.9807L141.224 83.3718C140.256 85.2559 139.859 81.3183 137.976 80.3495Z" fill="black"></path>
    <path d="M106.823 10.1258L83.4941 55.517C82.3758 57.6929 83.2323 60.3638 85.4071 61.4827L130.776 84.8234C132.95 85.9423 135.62 85.0854 136.738 82.9095L160.067 37.5183C161.186 35.3424 160.329 32.6715 158.154 31.5526L112.786 8.21191C110.611 7.09304 107.941 7.94993 106.823 10.1258Z" fill="#6C63FF"></path>
    <path opacity="0.1" d="M149.76 57.5727L134.713 86.8494L81.4692 59.4566L96.5159 30.1805L116.522 56.7507L149.76 57.5727Z" fill="black"></path>
    <path d="M115.671 58.4057L90.0374 24.361C89.8788 24.1505 89.6694 23.9836 89.4288 23.8761C89.1882 23.7686 88.9242 23.724 88.6617 23.7465C88.3991 23.769 88.1466 23.8578 87.9277 24.0046C87.7088 24.1514 87.5308 24.3514 87.4103 24.5859L72.8238 52.9668C72.5319 53.5346 72.3547 54.1544 72.3023 54.7907C72.2499 55.427 72.3232 56.0674 72.5182 56.6753C72.7131 57.2833 73.0258 57.8468 73.4385 58.3339C73.8511 58.8209 74.3556 59.2219 74.9231 59.5138L138.475 92.2096C139.043 92.5015 139.662 92.6788 140.298 92.7313C140.934 92.7837 141.574 92.7103 142.182 92.5153C142.79 92.3203 143.353 92.0074 143.84 91.5945C144.327 91.1817 144.727 90.677 145.019 90.1092L159.356 62.2144C159.503 61.9283 159.575 61.6095 159.565 61.288C159.555 60.9664 159.464 60.6526 159.3 60.3759C159.136 60.0992 158.904 59.8688 158.627 59.7062C158.35 59.5435 158.035 59.454 157.714 59.4461L115.671 58.4057Z" fill="#F2F2F2"></path>
    <path d="M125.812 21.0974L110.922 13.4368L109.839 15.5435L124.73 23.2041L125.812 21.0974Z" fill="#F2F2F2"></path>
    <path d="M149.994 43.2421L105.774 20.4924L105.155 21.6962L149.375 44.4459L149.994 43.2421Z" fill="#F2F2F2"></path>
    <path d="M147.906 47.3051L103.686 24.5554L103.067 25.7592L147.287 48.5089L147.906 47.3051Z" fill="#F2F2F2"></path>
    <path d="M145.818 51.3681L101.598 28.6184L100.979 29.8223L145.199 52.572L145.818 51.3681Z" fill="#F2F2F2"></path>
    <path d="M116.765 11.3195C118.519 7.90582 117.18 3.71808 113.775 1.96592C110.369 0.213753 106.186 1.56067 104.431 4.97434C102.677 8.38801 104.015 12.5757 107.421 14.3279C110.827 16.0801 115.01 14.7332 116.765 11.3195Z" fill="white"></path>
    <path d="M114.316 0.912491C112.859 0.162582 111.211 -0.138032 109.583 0.0486671C107.955 0.235366 106.418 0.900997 105.168 1.96137C103.917 3.02175 103.01 4.42926 102.559 6.0059C102.108 7.58255 102.135 9.25751 102.635 10.819C103.136 12.3805 104.088 13.7584 105.372 14.7784C106.655 15.7984 108.212 16.4147 109.846 16.5495C111.479 16.6842 113.116 16.3313 114.549 15.5353C115.982 14.7394 117.147 13.5361 117.896 12.0777C118.895 10.121 119.079 7.84835 118.408 5.75633C117.737 3.66431 116.266 1.9229 114.316 0.912491ZM106.993 11.4392L105.158 5.71698L106.762 5.20207L108.084 9.32463L116.781 6.53306L117.296 8.13807L106.993 11.4392Z" fill="#57B894"></path>
  </g>
  <defs>
    <clipPath id="clip0">
      <rect width="495" height="325" fill="white"></rect>
    </clipPath>
  </defs>
</svg>
