<svg xmlns="http://www.w3.org/2000/svg" width="670" height="373" viewBox="0 0 670 373" fill="none"><path d="M491.881 139.888C485.866 134.446 485.024 125.299 489.944 118.848C489.63 119.143 489.323 119.449 489.029 119.774C483.25 126.168 483.747 136.037 490.138 141.818C496.528 147.599 506.393 147.102 512.171 140.708C512.465 140.383 512.739 140.047 513 139.705C507.079 145.25 497.898 145.33 491.881 139.888Z" fill="#2F2E41"></path><path d="M250 373C388.071 373 500 289.501 500 186.5C500 83.4989 388.071 0 250 0C111.929 0 0 83.4989 0 186.5C0 289.501 111.929 373 250 373Z" fill="#F2F2F2"></path><path d="M254.5 358.754C373.517 358.754 470 296.999 470 220.821C470 144.643 373.517 82.8889 254.5 82.8889C135.483 82.8889 39 144.643 39 220.821C39 296.999 135.483 358.754 254.5 358.754Z" fill="white"></path><path d="M345 372C524.493 372 670 365.732 670 358C670 350.268 524.493 344 345 344C165.507 344 20 350.268 20 358C20 365.732 165.507 372 345 372Z" fill="#2F2E41"></path><path d="M477.5 150.848C495.449 150.848 510 136.298 510 118.348C510 100.399 495.449 85.8484 477.5 85.8484C459.551 85.8484 445 100.399 445 118.348C445 136.298 459.551 150.848 477.5 150.848Z" fill="#2F2E41"></path><path d="M468.238 159.879L469.212 157.374L451.476 172.214L430.038 184.163C430.038 184.163 419.123 142.534 418.344 141.763C417.564 140.992 403.532 111.698 397.295 125.574C391.058 139.451 409.378 147.545 409.378 147.545C409.378 147.545 409.963 198.232 428.673 197.846C447.384 197.461 470.576 180.694 470.966 179.152C471.356 177.61 468.238 159.879 468.238 159.879Z" fill="#FFB8B8"></path><path d="M473.5 151.848C484.27 151.848 493 143.118 493 132.348C493 121.579 484.27 112.848 473.5 112.848C462.73 112.848 454 121.579 454 132.348C454 143.118 462.73 151.848 473.5 151.848Z" fill="#FFB8B8"></path><path d="M476.879 146.598C476.879 146.598 481.943 153.167 480.385 153.939C478.827 154.712 469.868 155.098 464.414 161.667C458.961 168.235 471.036 184.848 471.036 184.848L517 154.326L498.303 148.144C498.303 148.144 485.449 141.189 485.838 133.848L476.879 146.598Z" fill="#FFB8B8"></path><path d="M539 356.848H487.37C484.445 335.511 483.093 315.957 483.093 315.957C483.093 315.957 482.339 335.626 480.331 356.848H414C423.403 294.008 467.978 225.864 467.978 225.864C467.978 225.864 468.366 216.581 469.529 215.033C470.693 213.49 462.941 213.103 459.451 201.504C457.323 194.423 459.236 189.789 461.055 187.258C461.679 186.346 462.447 185.54 463.329 184.873C463.329 184.873 464.105 176.757 463.329 175.596C463.23 175.444 463.995 174.91 465.41 174.1C466.589 173.42 468.219 172.547 470.169 171.543C481.338 165.764 502.957 155.539 510.363 152.056C511.987 151.288 512.931 150.848 512.931 150.848L526.107 155.487C536.568 158.965 536.568 181.008 536.568 181.008L535.976 181.908L520.164 205.808L510.992 219.677C513.319 221.22 508.67 230.89 508.67 230.89C508.67 230.89 515.295 240.387 520.682 254.884C523.729 262.952 525.807 271.352 526.872 279.908C527.551 285.453 527.685 291.051 527.27 296.623C525.834 315.251 532.218 337.891 539 356.848Z" fill="#2F2E41"></path><path d="M525.951 157.283C525.091 156.794 524.063 156.714 523.139 157.063C522.216 157.412 521.492 158.156 521.161 159.095C520.007 162.303 518.838 168.991 519.255 182.896C520.021 208.469 520.404 225.905 520.404 225.905V264.652C520.404 264.652 503.551 301.848 512.744 301.848C521.936 301.848 528.447 272.401 528.447 272.401C528.447 272.401 536.874 227.842 534.192 220.093C534.192 220.093 541.752 166.558 525.951 157.283Z" fill="#FFB8B8"></path><path d="M471.5 126.848C480.613 126.848 488 121.7 488 115.348C488 108.997 480.613 103.848 471.5 103.848C462.387 103.848 455 108.997 455 115.348C455 121.7 462.387 126.848 471.5 126.848Z" fill="#2F2E41"></path><path d="M498 105.848C506.837 105.848 514 98.6849 514 89.8484C514 81.0118 506.837 73.8484 498 73.8484C489.163 73.8484 482 81.0118 482 89.8484C482 98.6849 489.163 105.848 498 105.848Z" fill="#2F2E41"></path><path d="M509 101.233C500.682 101.232 493.752 94.9786 493.06 86.8484C493.023 87.28 493 87.7153 493 88.1561C493 96.8227 500.163 103.848 509 103.848C517.837 103.848 525 96.8227 525 88.1561C525 87.7153 524.977 87.28 524.94 86.8484C524.248 94.9786 517.318 101.232 509 101.233Z" fill="#2F2E41"></path><path d="M492.389 128.867C493.118 128.693 493.386 127.202 492.988 125.537C492.591 123.871 491.678 122.663 490.949 122.837C490.22 123.011 489.952 124.502 490.35 126.167C490.748 127.832 491.661 129.041 492.389 128.867Z" fill="#FFB8B8"></path><path d="M492 128.848C492.552 128.848 493 128.401 493 127.848C493 127.296 492.552 126.848 492 126.848C491.448 126.848 491 127.296 491 127.848C491 128.401 491.448 128.848 492 128.848Z" fill="#F2F2F2"></path><path d="M623.08 116.381C598.78 116.492 579 116.848 579 116.848C579 116.848 602.511 85.9426 622.992 97.393C643.473 108.843 667 116.446 667 116.446C667 116.446 647.381 116.27 623.08 116.381Z" fill="#F2F2F2"></path><path d="M550.08 47.5326C525.78 47.6437 506 48 506 48C506 48 529.511 17.0942 549.992 28.5446C570.473 39.995 594 47.5975 594 47.5975C594 47.5975 574.381 47.4214 550.08 47.5326Z" fill="#F2F2F2"></path><path d="M348.157 103.489C344.136 101.422 342.553 96.4863 344.62 92.4657L363.66 55.4388C365.727 51.4183 370.663 49.8349 374.683 51.9024L411.71 70.942C415.731 73.0095 417.314 77.9448 415.246 81.9653L396.207 118.992C394.139 123.013 389.204 124.596 385.183 122.529L348.157 103.489Z" fill="#111B47"></path><path d="M369.413 55.1805L383.839 62.599L382.79 64.6391L368.364 57.2207L369.413 55.1805Z" fill="#F2F2F2"></path><path d="M364.425 62.0131L407.268 84.0435L406.669 85.2093L363.826 63.1789L364.425 62.0131Z" fill="#F2F2F2"></path><path d="M362.402 65.9476L405.245 87.9781L404.646 89.1439L361.802 67.1134L362.402 65.9476Z" fill="#F2F2F2"></path><path d="M360.379 69.8822L403.222 91.9127L402.622 93.0785L359.779 71.048L360.379 69.8822Z" fill="#F2F2F2"></path><path d="M375.073 53.1302C376.773 49.8244 375.476 45.7691 372.176 44.0723C368.877 42.3755 364.824 43.6798 363.124 46.9856C361.424 50.2913 362.721 54.3467 366.021 56.0435C369.32 57.7402 373.373 56.4359 375.073 53.1302Z" fill="white"></path><path fill-rule="evenodd" clip-rule="evenodd" d="M361.887 46.1908C363.908 42.2624 368.733 40.7154 372.664 42.7354C376.583 44.7645 378.128 49.5765 376.121 53.5061C374.1 57.4345 369.275 58.9815 365.345 56.9615C361.414 54.9414 359.866 50.1193 361.887 46.1908ZM363.82 47.3701L365.592 52.8901L375.541 49.7056L375.044 48.1573L366.646 50.8502L365.369 46.8734L363.82 47.3701Z" fill="#57B894"></path><path d="M586 357V301V357Z" fill="#3F3D56"></path><path d="M586 357V301" stroke="#3F3D56" stroke-width="2"></path><path d="M586 309C590.418 309 594 305.418 594 301C594 296.582 590.418 293 586 293C581.582 293 578 296.582 578 301C578 305.418 581.582 309 586 309Z" fill="#3F3D56"></path><path d="M586 336C586 336 584.884 311.368 562 314.232L586 336Z" fill="#3F3D56"></path><path d="M625 358V268V358Z" fill="#3F3D56"></path><path d="M625 358V268" stroke="#3F3D56" stroke-width="2"></path><path d="M625 276C629.418 276 633 272.418 633 268C633 263.582 629.418 260 625 260C620.582 260 617 263.582 617 268C617 272.418 620.582 276 625 276Z" fill="#3F3D56"></path><path d="M625 303C625 303 623.884 278.368 601 281.232L625 303Z" fill="#3F3D56"></path><circle cx="646" cy="287" r="6" fill="#FF6584"></circle><path d="M80.5 19L121.636 37.75H39.3638L80.5 19Z" fill="#F0F0F0"></path><path d="M94.5 19L135.636 37.75H53.3638L94.5 19Z" fill="#111B47"></path><rect x="37" y="40" width="87" height="41" fill="#F0F0F0"></rect><rect x="51" y="40" width="87" height="41" fill="#111B47"></rect><path d="M94.4941 22.2979V24.1577H93.4912V22.2979H94.4941ZM94.3672 32.6636V34.3711H93.3643V32.6636H94.3672ZM94.9258 30.5625C94.9258 30.3255 94.8856 30.1266 94.8052 29.9658C94.729 29.805 94.6021 29.6632 94.4243 29.5405C94.2466 29.4178 94.0117 29.2972 93.7197 29.1787C93.1611 28.9587 92.6702 28.7301 92.2471 28.4932C91.8239 28.252 91.4938 27.9515 91.2568 27.5918C91.0199 27.2321 90.9014 26.7708 90.9014 26.208C90.9014 25.6833 91.0283 25.2284 91.2822 24.8433C91.5361 24.4539 91.8874 24.1535 92.3359 23.9419C92.7887 23.7303 93.3114 23.6245 93.9038 23.6245C94.3566 23.6245 94.7692 23.6922 95.1416 23.8276C95.514 23.9631 95.8335 24.1577 96.1001 24.4116C96.3709 24.6655 96.5783 24.9787 96.7222 25.3511C96.866 25.7192 96.938 26.1403 96.938 26.6143H94.9512C94.9512 26.3646 94.9258 26.1488 94.875 25.9668C94.8242 25.7806 94.7502 25.6283 94.6528 25.5098C94.5555 25.387 94.4412 25.2961 94.3101 25.2368C94.1831 25.1776 94.0392 25.1479 93.8784 25.1479C93.6457 25.1479 93.4552 25.1966 93.3071 25.2939C93.159 25.387 93.0511 25.514 92.9834 25.6748C92.9157 25.8356 92.8818 26.0155 92.8818 26.2144C92.8818 26.4175 92.9178 26.5952 92.9897 26.7476C93.0659 26.8999 93.1929 27.0396 93.3706 27.1665C93.5483 27.2935 93.7917 27.4225 94.1006 27.5537C94.6507 27.778 95.1374 28.015 95.5605 28.2646C95.9837 28.5101 96.3138 28.8127 96.5508 29.1724C96.792 29.5278 96.9126 29.987 96.9126 30.5498C96.9126 31.0999 96.7835 31.5675 96.5254 31.9526C96.2715 32.3377 95.9139 32.6318 95.4526 32.835C94.9956 33.0339 94.4666 33.1333 93.8657 33.1333C93.4637 33.1333 93.0659 33.0825 92.6724 32.981C92.283 32.8752 91.9276 32.7038 91.606 32.4668C91.2843 32.2298 91.0283 31.9146 90.8379 31.521C90.6475 31.1274 90.5522 30.645 90.5522 30.0737H92.5391C92.5391 30.37 92.575 30.6175 92.647 30.8164C92.7231 31.0111 92.8226 31.1676 92.9453 31.2861C93.0723 31.4004 93.214 31.4829 93.3706 31.5337C93.5314 31.5845 93.6965 31.6099 93.8657 31.6099C94.1069 31.6099 94.3058 31.5633 94.4624 31.4702C94.619 31.3771 94.7354 31.2523 94.8115 31.0957C94.8877 30.9349 94.9258 30.7572 94.9258 30.5625Z" fill="#F0F0F0"></path><rect x="58" y="45" width="8" height="31" fill="#D9D9D9"></rect><rect x="71" y="45" width="8" height="31" fill="#D9D9D9"></rect><rect x="84" y="45" width="8" height="31" fill="#D9D9D9"></rect><rect x="97" y="45" width="8" height="31" fill="#D9D9D9"></rect><rect x="110" y="45" width="8" height="31" fill="#D9D9D9"></rect><rect x="123" y="45" width="8" height="31" fill="#D9D9D9"></rect><rect x="355.556" y="284.381" width="26.6667" height="5.39683" fill="#222F65"></rect><rect x="348.572" y="257.079" width="39.0476" height="5.07937" fill="#F0F0F0"></rect><path fill-rule="evenodd" clip-rule="evenodd" d="M345.726 313.587H394.274C397.435 313.584 399.996 311.024 400 307.865V217.723C399.996 214.564 397.435 212.004 394.274 212H345.726C342.565 212.004 340.004 214.564 340 217.723V307.865C340.004 311.024 342.565 313.584 345.726 313.587ZM340.427 217.723C340.43 214.799 342.801 212.43 345.726 212.427H394.275C397.199 212.43 399.57 214.799 399.573 217.723V307.865C399.57 310.788 397.199 313.157 394.275 313.16H345.726C342.801 313.157 340.43 310.788 340.427 307.865V217.723Z" fill="#3F3D56"></path><path fill-rule="evenodd" clip-rule="evenodd" d="M363.175 215.175C363.175 215.876 363.743 216.444 364.444 216.444C365.145 216.444 365.713 215.876 365.714 215.175C365.714 214.473 365.146 213.905 364.444 213.905C363.743 213.905 363.175 214.473 363.175 215.175ZM363.598 215.175C363.598 214.707 363.977 214.328 364.444 214.328C364.912 214.329 365.29 214.707 365.291 215.175C365.291 215.642 364.912 216.021 364.444 216.021C363.977 216.021 363.598 215.642 363.598 215.175Z" fill="#3F3D56"></path><rect x="367.619" y="214.857" width="9.52381" height="0.31746" fill="#3F3D56"></rect><path d="M396.508 218.032V235.175C387.041 235.174 379.366 227.499 379.365 218.032H396.508Z" fill="#222F65"></path><path fill-rule="evenodd" clip-rule="evenodd" d="M343.81 307.873H396.508V218.032H343.81V307.873ZM396.081 307.446H344.236V218.459H396.081V307.446Z" fill="#3F3D56"></path><path opacity="0.1" d="M383.968 234.222C387.212 234.222 389.841 231.593 389.841 228.349C389.841 225.106 387.212 222.476 383.968 222.476C380.725 222.476 378.095 225.106 378.095 228.349C378.095 231.593 380.725 234.222 383.968 234.222Z" fill="black"></path><path d="M383.016 234.857C386.259 234.857 388.889 232.228 388.889 228.984C388.889 225.741 386.259 223.111 383.016 223.111C379.772 223.111 377.143 225.741 377.143 228.984C377.143 232.228 379.772 234.857 383.016 234.857Z" fill="#222F65"></path><rect x="346.032" y="221.524" width="8.25397" height="2.85714" fill="#3F3D56"></rect><rect x="350.476" y="250.095" width="8.25397" height="2.85714" fill="#3F3D56"></rect><path fill-rule="evenodd" clip-rule="evenodd" d="M350.794 261.206H390.159V255.81H350.794V261.206ZM389.731 260.791H351.222V256.225H389.731V260.791Z" fill="#3F3D56"></path><rect x="348.572" y="273.27" width="39.0476" height="5.07937" fill="#F0F0F0"></rect><rect x="350.476" y="265.968" width="8.25397" height="2.85714" fill="#3F3D56"></rect><path fill-rule="evenodd" clip-rule="evenodd" d="M350.794 277.397H390.159V272H350.794V277.397ZM389.731 276.982H351.222V272.415H389.731V276.982Z" fill="#3F3D56"></path><path fill-rule="evenodd" clip-rule="evenodd" d="M356.825 288.508H383.81V282.794H356.825V288.508ZM383.381 288.1H357.254V283.202H383.381V288.1Z" fill="#3F3D56"></path><path d="M388.571 259.143C388.571 260.013 388.025 260.79 387.206 261.084C386.388 261.379 385.472 261.128 384.918 260.457L384.916 260.455C384.376 259.8 384.292 258.881 384.705 258.139C385.117 257.398 385.942 256.984 386.784 257.098C387.625 257.212 388.31 257.829 388.511 258.654C388.511 258.654 388.512 258.655 388.512 258.655C388.512 258.656 388.513 258.656 388.514 258.656C388.552 258.815 388.571 258.979 388.571 259.143Z" fill="#222F65"></path><path opacity="0.1" d="M388.571 259.024C388.571 259.944 388.011 260.766 387.171 261.077C386.331 261.389 385.392 261.124 384.823 260.414L384.821 260.412C384.782 260.243 384.762 260.07 384.762 259.897C384.762 258.976 385.322 258.155 386.162 257.843C387.002 257.532 387.941 257.797 388.51 258.507C388.51 258.507 388.51 258.508 388.511 258.508C388.511 258.509 388.512 258.509 388.512 258.509C388.551 258.677 388.571 258.85 388.571 259.024Z" fill="black"></path><path d="M387.46 262.159C388.6 262.159 389.524 261.235 389.524 260.095C389.524 258.956 388.6 258.032 387.46 258.032C386.321 258.032 385.397 258.956 385.397 260.095C385.397 261.235 386.321 262.159 387.46 262.159Z" fill="#222F65"></path><path d="M388.571 275.016C388.571 275.886 388.025 276.663 387.206 276.957C386.388 277.252 385.472 277.001 384.918 276.33L384.916 276.328C384.376 275.673 384.292 274.754 384.705 274.012C385.117 273.271 385.942 272.857 386.784 272.971C387.625 273.085 388.31 273.702 388.511 274.527C388.511 274.527 388.512 274.528 388.512 274.528C388.512 274.529 388.513 274.529 388.514 274.529C388.552 274.688 388.571 274.852 388.571 275.016Z" fill="#222F65"></path><rect x="167.25" y="294.728" width="96.0938" height="7.96875" fill="#222F65"></rect><rect x="141.938" y="254.416" width="140.625" height="7.5" fill="#F0F0F0"></rect><path fill-rule="evenodd" clip-rule="evenodd" d="M131.665 338H306.897C318.305 337.995 327.549 334.215 327.562 329.55V196.45C327.55 191.785 318.305 188.005 306.897 188H131.665C120.258 188.005 111.013 191.785 111 196.45V329.55C111.013 334.215 120.258 337.995 131.665 338ZM112.541 196.45C112.553 192.133 121.109 188.635 131.666 188.63H306.897C317.454 188.635 326.009 192.133 326.021 196.45V329.55C326.009 333.867 317.454 337.365 306.897 337.37H131.666C121.109 337.365 112.553 333.867 112.541 329.55V196.45Z" fill="#3F3D56"></path><path fill-rule="evenodd" clip-rule="evenodd" d="M273.188 192.688C273.188 193.723 274.027 194.562 275.062 194.562C276.098 194.561 276.936 193.723 276.938 192.688C276.938 191.652 276.098 190.812 275.062 190.812C274.027 190.812 273.188 191.652 273.188 192.688ZM273.813 192.687C273.813 191.997 274.372 191.437 275.063 191.437C275.753 191.438 276.312 191.997 276.313 192.687C276.313 193.378 275.753 193.937 275.063 193.937C274.372 193.937 273.813 193.378 273.813 192.687Z" fill="#3F3D56"></path><rect x="279.75" y="192.219" width="14.0625" height="0.46875" fill="#3F3D56"></rect><path d="M313.406 196.906V222.219C299.427 222.218 288.094 210.886 288.094 196.906H313.406Z" fill="#222F65"></path><path fill-rule="evenodd" clip-rule="evenodd" d="M124.75 329.562H314.958V196.906H124.75V329.562ZM313.418 328.932H126.29V197.536H313.418V328.932Z" fill="#3F3D56"></path><path opacity="0.1" d="M303.891 220.812C308.68 220.812 312.562 216.93 312.562 212.141C312.562 207.351 308.68 203.469 303.891 203.469C299.101 203.469 295.219 207.351 295.219 212.141C295.219 216.93 299.101 220.812 303.891 220.812Z" fill="black"></path><path d="M293.484 221.75C298.274 221.75 302.156 217.867 302.156 213.078C302.156 208.289 298.274 204.406 293.484 204.406C288.695 204.406 284.812 208.289 284.812 213.078C284.812 217.867 288.695 221.75 293.484 221.75Z" fill="#222F65"></path><path d="M286.078 257.697C288.02 257.697 289.594 256.123 289.594 254.181C289.594 252.24 288.02 250.666 286.078 250.666C284.136 250.666 282.562 252.24 282.562 254.181C282.562 256.123 284.136 257.697 286.078 257.697Z" fill="#222F65"></path><path d="M287.016 260.978C288.957 260.978 290.531 259.404 290.531 257.462C290.531 255.521 288.957 253.947 287.016 253.947C285.074 253.947 283.5 255.521 283.5 257.462C283.5 259.404 285.074 260.978 287.016 260.978Z" fill="#222F65"></path><path d="M286.078 287.697C288.02 287.697 289.594 286.123 289.594 284.181C289.594 282.24 288.02 280.666 286.078 280.666C284.136 280.666 282.562 282.24 282.562 284.181C282.562 286.123 284.136 287.697 286.078 287.697Z" fill="#222F65"></path><path d="M287.016 290.978C288.957 290.978 290.531 289.404 290.531 287.462C290.531 285.521 288.957 283.947 287.016 283.947C285.074 283.947 283.5 285.521 283.5 287.462C283.5 289.404 285.074 290.978 287.016 290.978Z" fill="#222F65"></path><rect x="129.75" y="201.916" width="12.1875" height="4.21875" fill="#3F3D56"></rect><rect x="148.969" y="244.103" width="29.5312" height="4.21875" fill="#3F3D56"></rect><path fill-rule="evenodd" clip-rule="evenodd" d="M149.958 260.656H292.042V252.688H149.958V260.656ZM290.497 260.043H151.503V253.3H290.497V260.043Z" fill="#3F3D56"></path><rect x="141.938" y="278.322" width="140.625" height="7.5" fill="#F0F0F0"></rect><rect x="148.969" y="267.541" width="29.5312" height="4.21875" fill="#3F3D56"></rect><path fill-rule="evenodd" clip-rule="evenodd" d="M149.958 284.562H292.042V276.594H149.958V284.562ZM290.497 283.95H151.503V277.207H290.497V283.95Z" fill="#3F3D56"></path><path fill-rule="evenodd" clip-rule="evenodd" d="M171.729 300.969H269.125V292.531H171.729V300.969ZM267.579 300.366H173.275V293.134H267.579V300.366Z" fill="#3F3D56"></path><rect x="440.5" y="26.5" width="19" height="19" fill="white" stroke="black"></rect><rect x="581.5" y="223.5" width="19" height="19" fill="white" stroke="black"></rect><circle cx="248" cy="56" r="9.5" fill="white" stroke="black"></circle><rect x="165.5" y="103.5" width="47" height="47" fill="#222F65" stroke="white" stroke-width="3"></rect><path d="M197.82 126.178C197.792 126.915 197.681 127.646 197.487 128.369C197.301 129.085 197.015 129.737 196.628 130.324C196.248 130.904 195.761 131.366 195.167 131.71C194.58 132.054 193.874 132.226 193.051 132.226C192.592 132.226 192.174 132.147 191.794 131.989C191.422 131.825 191.103 131.595 190.838 131.302C190.58 131.001 190.383 130.639 190.247 130.217C190.118 129.787 190.072 129.311 190.107 128.788L190.655 122.536H192.933L192.396 128.788C192.36 129.125 192.367 129.4 192.417 129.615C192.467 129.83 192.546 129.998 192.653 130.12C192.761 130.235 192.886 130.317 193.029 130.367C193.18 130.417 193.33 130.442 193.48 130.442C193.81 130.442 194.111 130.339 194.383 130.131C194.655 129.916 194.891 129.619 195.092 129.239C195.299 128.86 195.461 128.416 195.575 127.907C195.69 127.399 195.758 126.851 195.779 126.264C195.822 125.34 195.772 124.484 195.629 123.696C195.493 122.901 195.26 122.192 194.931 121.569C194.601 120.939 194.175 120.406 193.652 119.969C193.13 119.525 192.51 119.185 191.794 118.948C191.078 118.712 190.254 118.594 189.323 118.594C188.45 118.594 187.644 118.73 186.906 119.002C186.176 119.274 185.517 119.664 184.93 120.173C184.35 120.681 183.852 121.286 183.437 121.988C183.021 122.683 182.695 123.46 182.459 124.319C182.223 125.172 182.083 126.081 182.04 127.048C181.99 128.086 182.044 129.024 182.201 129.862C182.366 130.7 182.627 131.434 182.985 132.064C183.343 132.702 183.795 133.232 184.339 133.654C184.883 134.077 185.513 134.396 186.229 134.61C186.946 134.825 187.741 134.933 188.614 134.933C189.237 134.933 189.871 134.865 190.516 134.729C191.167 134.592 191.719 134.421 192.17 134.213L192.578 135.91C192.077 136.232 191.45 136.472 190.698 136.63C189.946 136.787 189.237 136.866 188.571 136.866C187.425 136.866 186.38 136.73 185.435 136.458C184.489 136.193 183.655 135.792 182.932 135.255C182.215 134.718 181.618 134.052 181.138 133.257C180.658 132.469 180.303 131.556 180.074 130.518C179.852 129.479 179.766 128.323 179.816 127.048C179.867 125.873 180.046 124.771 180.354 123.739C180.669 122.701 181.102 121.759 181.653 120.914C182.205 120.069 182.864 119.342 183.63 118.733C184.396 118.118 185.259 117.645 186.219 117.315C187.186 116.986 188.235 116.821 189.366 116.821C190.491 116.821 191.511 116.965 192.428 117.251C193.344 117.537 194.146 117.953 194.834 118.497C195.529 119.041 196.105 119.7 196.563 120.474C197.022 121.24 197.355 122.103 197.562 123.062C197.777 124.022 197.863 125.061 197.82 126.178ZM187.024 127.349C186.981 127.814 186.981 128.229 187.024 128.595C187.067 128.953 187.146 129.254 187.261 129.497C187.375 129.733 187.529 129.916 187.723 130.045C187.916 130.167 188.142 130.228 188.399 130.228C188.535 130.228 188.686 130.195 188.851 130.131C189.022 130.059 189.194 129.938 189.366 129.766C189.545 129.594 189.714 129.357 189.871 129.057C190.036 128.749 190.179 128.351 190.301 127.864L191.246 129.014C191.081 129.544 190.877 130.009 190.634 130.41C190.397 130.804 190.125 131.133 189.817 131.398C189.509 131.663 189.173 131.864 188.808 132C188.442 132.129 188.045 132.193 187.615 132.193C187.092 132.193 186.623 132.079 186.208 131.85C185.793 131.62 185.445 131.295 185.166 130.872C184.887 130.442 184.686 129.93 184.564 129.336C184.45 128.742 184.425 128.079 184.489 127.349C184.575 126.618 184.722 125.945 184.93 125.329C185.137 124.706 185.399 124.151 185.714 123.664C186.029 123.177 186.387 122.762 186.788 122.418C187.189 122.074 187.626 121.813 188.099 121.634C188.571 121.455 189.069 121.365 189.592 121.365C190.437 121.365 191.096 121.483 191.568 121.72C192.048 121.956 192.503 122.228 192.933 122.536L191.794 124.115C191.586 123.929 191.314 123.75 190.978 123.578C190.648 123.399 190.254 123.31 189.796 123.31C189.373 123.31 189.005 123.396 188.689 123.567C188.374 123.739 188.102 124.001 187.873 124.352C187.651 124.695 187.468 125.118 187.325 125.619C187.189 126.113 187.089 126.69 187.024 127.349Z" fill="white"></path><rect x="200.5" y="134.5" width="37" height="37" fill="#222F65" stroke="white" stroke-width="3"></rect><path d="M227.82 152.578C227.792 153.315 227.681 154.046 227.487 154.769C227.301 155.485 227.015 156.137 226.628 156.724C226.248 157.304 225.761 157.766 225.167 158.11C224.58 158.454 223.874 158.626 223.051 158.626C222.592 158.626 222.174 158.547 221.794 158.389C221.422 158.225 221.103 157.995 220.838 157.702C220.58 157.401 220.383 157.039 220.247 156.617C220.118 156.187 220.072 155.711 220.107 155.188L220.655 148.936H222.933L222.396 155.188C222.36 155.525 222.367 155.8 222.417 156.015C222.467 156.23 222.546 156.398 222.653 156.52C222.761 156.635 222.886 156.717 223.029 156.767C223.18 156.817 223.33 156.842 223.48 156.842C223.81 156.842 224.111 156.739 224.383 156.531C224.655 156.316 224.891 156.019 225.092 155.639C225.299 155.26 225.461 154.816 225.575 154.307C225.69 153.799 225.758 153.251 225.779 152.664C225.822 151.74 225.772 150.884 225.629 150.096C225.493 149.301 225.26 148.592 224.931 147.969C224.601 147.339 224.175 146.806 223.652 146.369C223.13 145.925 222.51 145.585 221.794 145.348C221.078 145.112 220.254 144.994 219.323 144.994C218.45 144.994 217.644 145.13 216.906 145.402C216.176 145.674 215.517 146.064 214.93 146.573C214.35 147.081 213.852 147.686 213.437 148.388C213.021 149.083 212.695 149.86 212.459 150.719C212.223 151.572 212.083 152.481 212.04 153.448C211.99 154.486 212.044 155.424 212.201 156.262C212.366 157.1 212.627 157.834 212.985 158.464C213.343 159.102 213.795 159.632 214.339 160.054C214.883 160.477 215.513 160.796 216.229 161.01C216.946 161.225 217.741 161.333 218.614 161.333C219.237 161.333 219.871 161.265 220.516 161.129C221.167 160.992 221.719 160.821 222.17 160.613L222.578 162.31C222.077 162.632 221.45 162.872 220.698 163.03C219.946 163.187 219.237 163.266 218.571 163.266C217.425 163.266 216.38 163.13 215.435 162.858C214.489 162.593 213.655 162.192 212.932 161.655C212.215 161.118 211.618 160.452 211.138 159.657C210.658 158.869 210.303 157.956 210.074 156.918C209.852 155.879 209.766 154.723 209.816 153.448C209.867 152.273 210.046 151.171 210.354 150.139C210.669 149.101 211.102 148.159 211.653 147.314C212.205 146.469 212.864 145.742 213.63 145.133C214.396 144.518 215.259 144.045 216.219 143.715C217.186 143.386 218.235 143.221 219.366 143.221C220.491 143.221 221.511 143.365 222.428 143.651C223.344 143.937 224.146 144.353 224.834 144.897C225.529 145.441 226.105 146.1 226.563 146.874C227.022 147.64 227.355 148.503 227.562 149.463C227.777 150.422 227.863 151.461 227.82 152.578ZM217.024 153.749C216.981 154.214 216.981 154.63 217.024 154.995C217.067 155.353 217.146 155.654 217.261 155.897C217.375 156.133 217.529 156.316 217.723 156.445C217.916 156.567 218.142 156.628 218.399 156.628C218.535 156.628 218.686 156.595 218.851 156.531C219.022 156.459 219.194 156.338 219.366 156.166C219.545 155.994 219.714 155.757 219.871 155.457C220.036 155.149 220.179 154.751 220.301 154.264L221.246 155.414C221.081 155.944 220.877 156.409 220.634 156.81C220.397 157.204 220.125 157.533 219.817 157.798C219.509 158.063 219.173 158.264 218.808 158.4C218.442 158.529 218.045 158.593 217.615 158.593C217.092 158.593 216.623 158.479 216.208 158.25C215.793 158.02 215.445 157.695 215.166 157.272C214.887 156.842 214.686 156.33 214.564 155.736C214.45 155.142 214.425 154.479 214.489 153.749C214.575 153.018 214.722 152.345 214.93 151.729C215.137 151.106 215.399 150.551 215.714 150.064C216.029 149.577 216.387 149.162 216.788 148.818C217.189 148.474 217.626 148.213 218.099 148.034C218.571 147.855 219.069 147.765 219.592 147.765C220.437 147.765 221.096 147.883 221.568 148.12C222.048 148.356 222.503 148.628 222.933 148.936L221.794 150.515C221.586 150.329 221.314 150.15 220.978 149.978C220.648 149.799 220.254 149.71 219.796 149.71C219.373 149.71 219.005 149.796 218.689 149.967C218.374 150.139 218.102 150.401 217.873 150.752C217.651 151.095 217.468 151.518 217.325 152.019C217.189 152.513 217.089 153.09 217.024 153.749Z" fill="white"></path></svg>